<svg aria-hidden="true" style="position: absolute; width: 0; height: 0; overflow: hidden;" version="1.1" xmlns="http://www.w3.org/2000/svg" xmlns:xlink="http://www.w3.org/1999/xlink">
<defs>
<symbol id="icon-icon-close" viewBox="0 0 32 32">
<path d="M32 3.223l-3.223-3.223-12.777 12.777-12.777-12.777-3.223 3.223 12.777 12.777-12.777 12.777 3.223 3.223 12.777-12.777 12.777 12.777 3.223-3.223-12.777-12.777 12.777-12.777z"></path>
</symbol>
<symbol id="icon-arrow" viewBox="0 0 20 32">
<path d="M0.726 5.206l11.274 11.298-11.274 11.299 3.471 3.471 14.769-14.769-14.769-14.769-3.471 3.471z"></path>
</symbol>
<symbol id="icon-icon-search" viewBox="0 0 32 32">
<path d="M11.556 0c3.065 0 6.004 1.217 8.171 3.385s3.385 5.106 3.385 8.171c0 2.862-1.049 5.493-2.773 7.52l0.48 0.48h1.404l8.889 8.889-2.667 2.667-8.889-8.889v-1.404l-0.48-0.48c-2.027 1.724-4.658 2.773-7.52 2.773-3.065 0-6.004-1.217-8.171-3.385s-3.385-5.106-3.385-8.171c0-3.065 1.217-6.004 3.385-8.171s5.106-3.385 8.171-3.385zM11.556 3.556c-4.444 0-8 3.556-8 8s3.556 8 8 8c4.444 0 8-3.556 8-8s-3.556-8-8-8z"></path>
</symbol>
<symbol id="icon-openfilter" viewBox="0 0 48 32">
<path fill="#2264d1" style="fill: var(--color1, #2264d1)" d="M8 18.667h32v-5.333h-32v5.333zM0 0v5.333h48v-5.333h-48zM18.667 32h10.667v-5.333h-10.667v5.333z"></path>
</symbol>
<symbol id="icon-icon1" viewBox="0 0 32 32">
<path d="M30.016 22.144h-0.016c1.2 0.688 2 1.984 2 3.456 0 1.061-0.421 2.078-1.172 2.828s-1.768 1.172-2.828 1.172h-24c-1.061 0-2.078-0.421-2.828-1.172s-1.172-1.768-1.172-2.828c0-1.472 0.8-2.768 2-3.456h-0.016l12.416-7.168c0 0 0-1.376 1.6-2.976 1.6 0 3.2-1.44 3.2-3.2 0-0.849-0.337-1.663-0.937-2.263s-1.414-0.937-2.263-0.937c-0.849 0-1.663 0.337-2.263 0.937s-0.937 1.414-0.937 2.263h-3.2c0-1.697 0.674-3.325 1.874-4.526s2.828-1.875 4.525-1.875c1.697 0 3.325 0.674 4.525 1.875s1.875 2.828 1.875 4.526c0 2.976-2.032 5.472-4.8 6.192l12.416 7.152zM4 26.4h24c0.272 0 0.544-0.144 0.688-0.4 0.224-0.4 0.112-0.864-0.288-1.088l-12.4-7.168-12.4 7.168c-0.4 0.224-0.512 0.688-0.288 1.088 0.144 0.256 0.416 0.4 0.688 0.4z"></path>
</symbol>
<symbol id="icon-icon2" viewBox="0 0 32 32">
<path d="M26.667 10.667h-3.556v-3.556h3.556v3.556zM26.667 17.778h-3.556v-3.556h3.556v3.556zM26.667 24.889h-3.556v-3.556h3.556v3.556zM8.889 10.667h-3.556v-3.556h3.556v3.556zM8.889 17.778h-3.556v-3.556h3.556v3.556zM8.889 24.889h-3.556v-3.556h3.556v3.556zM26.667 0v3.556h-3.556v-3.556h-14.222v3.556h-3.556v-3.556h-3.556v32h3.556v-3.556h3.556v3.556h14.222v-3.556h3.556v3.556h3.556v-32h-3.556z"></path>
</symbol>
<symbol id="icon-icon3" viewBox="0 0 32 32">
<path d="M32 0.842v21.053c0 1.563-0.621 3.063-1.726 4.168s-2.605 1.726-4.168 1.726c-1.563 0-3.063-0.621-4.168-1.726s-1.726-2.605-1.726-4.168c0-1.563 0.621-3.063 1.726-4.168s2.605-1.726 4.168-1.726c0.909 0 1.768 0.202 2.526 0.573v-9.886l-16.842 3.587v14.989c0 1.563-0.621 3.063-1.727 4.168s-2.605 1.726-4.168 1.726c-1.563 0-3.063-0.621-4.168-1.726s-1.727-2.605-1.727-4.168c0-1.563 0.621-3.063 1.727-4.168s2.605-1.726 4.168-1.726c0.909 0 1.768 0.202 2.526 0.573v-14.046l23.579-5.053z"></path>
</symbol>
<symbol id="icon-icon4" viewBox="0 0 32 32">
<path d="M2.867 19.541l-1.213-1.196c-1.297-1.314-1.297-3.436 0-4.749 1.347-1.331 3.469-1.331 4.783 0l4.345 4.328 7.141-7.141-4.328-4.345c-1.331-1.314-1.331-3.436 0-4.783 1.314-1.297 3.436-1.297 4.749 0l1.196 1.213 9.533 9.533 1.213 1.196c1.297 1.314 1.297 3.436 0 4.749-1.347 1.331-3.469 1.331-4.783 0l-4.345-4.328-7.141 7.141 4.328 4.345c1.331 1.314 1.331 3.436 0 4.783-1.314 1.297-3.436 1.297-4.749 0l-1.196-1.213-9.533-9.533zM1.082 28.467l1.785-1.785-2.375-2.375c-0.657-0.657-0.657-1.718 0-2.375s1.718-0.657 2.375 0l7.141 7.141c0.657 0.657 0.657 1.718 0 2.375s-1.718 0.657-2.375 0l-2.375-2.375-1.785 1.785-2.392-2.392zM28.467 1.082l2.392 2.392-1.785 1.785 2.375 2.375c0.657 0.657 0.657 1.718 0 2.375-0.657 0.674-1.718 0.674-2.375 0l-7.141-7.141c-0.657-0.657-0.657-1.718 0-2.375s1.718-0.657 2.375 0l2.375 2.375 1.785-1.785z"></path>
</symbol>
<symbol id="icon-icon5" viewBox="0 0 32 32">
<path d="M9.6 19.2c0 1.273-0.506 2.494-1.406 3.394s-2.121 1.406-3.394 1.406c-1.273 0-2.494-0.506-3.394-1.406s-1.406-2.121-1.406-3.394c0-1.232 0.464-2.352 1.216-3.2-0.752-0.848-1.216-1.968-1.216-3.2 0-1.273 0.506-2.494 1.406-3.394s2.121-1.406 3.394-1.406c1.273 0 2.494 0.506 3.394 1.406s1.406 2.121 1.406 3.394c2.128 0.128 4.272 0.272 6.4 0.272s4.272-0.144 6.4-0.272c0-1.273 0.506-2.494 1.406-3.394s2.121-1.406 3.394-1.406c1.273 0 2.494 0.506 3.394 1.406s1.406 2.121 1.406 3.394c0 1.232-0.464 2.352-1.216 3.2 0.752 0.848 1.216 1.968 1.216 3.2 0 1.273-0.506 2.494-1.406 3.394s-2.121 1.406-3.394 1.406c-1.273 0-2.494-0.506-3.394-1.406s-1.406-2.121-1.406-3.394c-2.128-0.128-4.272-0.272-6.4-0.272s-4.272 0.144-6.4 0.272z"></path>
</symbol>
<symbol id="icon-icon6" viewBox="0 0 32 32">
<path d="M8.576 17.632l-6.704-6.688c-2.496-2.512-2.496-6.56 0-9.056l11.232 11.2-4.528 4.544zM17.072 17.088l11.008 11.008-2.256 2.256-11.008-11.008-11.008 11.008-2.256-2.256 15.44-15.456-0.32-0.352c-1.248-1.232-1.248-3.248 0-4.496l6.944-6.992 1.488 1.472-5.184 5.216 1.536 1.504 5.184-5.2 1.472 1.472-5.2 5.184 1.504 1.536 5.216-5.2 1.472 1.504-6.992 6.944c-1.248 1.248-3.264 1.248-4.496 0l-0.352-0.32-2.192 2.176z"></path>
</symbol>
<symbol id="icon-icon7" viewBox="0 0 32 32">
<path d="M14.222 5.333h3.556v12.444h-3.556v-12.444zM10.667 30.222c0 0.471-0.187 0.924-0.521 1.257s-0.786 0.521-1.257 0.521h-5.333c-0.471 0-0.924-0.187-1.257-0.521s-0.521-0.786-0.521-1.257v-8.889l3.556-16h7.111v12.444c0 0.471-0.187 0.924-0.521 1.257s-0.786 0.521-1.257 0.521v10.667zM12.444 3.556h-5.333v-3.556h5.333v3.556zM21.333 30.222v-10.667c-0.471 0-0.924-0.187-1.257-0.521s-0.521-0.786-0.521-1.257v-12.444h7.111l3.556 16v8.889c0 0.471-0.187 0.924-0.521 1.257s-0.786 0.521-1.257 0.521h-5.333c-0.471 0-0.924-0.187-1.257-0.521s-0.521-0.786-0.521-1.257zM19.556 3.556v-3.556h5.333v3.556h-5.333z"></path>
</symbol>
<symbol id="icon-icon8" viewBox="0 0 16 32">
<path d="M1.207 24.902c-1.207-1.687-1.207-3.636-1.207-5.571 2.429 1.455 4.844 2.909 6.065 4.611l0.48 0.815v-3.316c-2.182-1.309-4.247-2.647-5.338-4.175-1.207-1.687-1.207-3.636-1.207-5.571 2.429 1.455 4.844 2.909 6.065 4.611l0.48 0.844v-3.345c-2.182-1.309-4.247-2.647-5.338-4.175-1.207-1.687-1.207-3.636-1.207-5.571 2.429 1.455 4.844 2.909 6.065 4.611 0.145 0.204 0.276 0.422 0.393 0.655-0.247-0.902-0.407-1.745-0.422-2.618-0.015-2.196 0.945-4.451 1.905-6.705 1.004 2.153 2.007 4.32 2.022 6.516 0.015 0.916-0.145 1.847-0.407 2.764 0.116-0.204 0.233-0.407 0.378-0.611 1.222-1.702 3.636-3.156 6.065-4.611 0 1.935 0 3.884-1.207 5.571-1.091 1.527-3.156 2.865-5.338 4.175v3.345l0.48-0.844c1.222-1.702 3.636-3.156 6.065-4.611 0 1.935 0 3.884-1.207 5.571-1.091 1.527-3.156 2.865-5.338 4.175v3.316l0.48-0.815c1.222-1.702 3.636-3.156 6.065-4.611 0 1.935 0 3.884-1.207 5.571-1.091 1.527-3.156 2.865-5.338 4.175v2.618h-2.909v-2.618c-2.182-1.309-4.247-2.647-5.338-4.175z"></path>
</symbol>
<symbol id="icon-icon9" viewBox="0 0 32 32">
<path d="M8 0h16l-5.6 11.2h5.6l-11.2 20.8v-12.8h-4.8v-19.2zM11.2 3.2v12.8h4.8v4.256l3.2-5.856h-6.016l5.632-11.2h-7.616z"></path>
</symbol>
<symbol id="icon-icon10" viewBox="0 0 32 32">
<path d="M18.4 0v12.8h12.8c0-3.395-1.349-6.651-3.749-9.051s-5.656-3.749-9.051-3.749zM28.512 22.224c1.68-2.16 2.688-4.88 2.688-7.824h-23.296l-1.504-3.2h-5.6v3.2h3.552c0 0 3.024 6.512 3.392 7.072-1.76 0.928-2.944 2.8-2.944 4.928 0 1.485 0.59 2.91 1.64 3.96s2.475 1.64 3.96 1.64c2.816 0 5.152-2.080 5.536-4.8h3.328c0.384 2.72 2.72 4.8 5.536 4.8 1.485 0 2.91-0.59 3.96-1.64s1.64-2.475 1.64-3.96c0-1.664-0.736-3.152-1.888-4.176zM10.4 28.8c-0.636 0-1.247-0.253-1.697-0.703s-0.703-1.061-0.703-1.697c0-0.636 0.253-1.247 0.703-1.697s1.061-0.703 1.697-0.703c0.636 0 1.247 0.253 1.697 0.703s0.703 1.061 0.703 1.697c0 0.636-0.253 1.247-0.703 1.697s-1.061 0.703-1.697 0.703zM24.8 28.8c-0.636 0-1.247-0.253-1.697-0.703s-0.703-1.061-0.703-1.697c0-0.636 0.253-1.247 0.703-1.697s1.061-0.703 1.697-0.703c0.636 0 1.247 0.253 1.697 0.703s0.703 1.061 0.703 1.697c0 0.636-0.253 1.247-0.703 1.697s-1.061 0.703-1.697 0.703z"></path>
</symbol>
<symbol id="icon-icon11" viewBox="0 0 32 32">
<path d="M16 11.552c0.849 0 1.663 0.337 2.263 0.937s0.937 1.414 0.937 2.263c0 0.849-0.337 1.663-0.937 2.263s-1.414 0.937-2.263 0.937c-0.849 0-1.663-0.337-2.263-0.937s-0.937-1.414-0.937-2.263c0-0.849 0.337-1.663 0.937-2.263s1.414-0.937 2.263-0.937zM16 30.752c-3.12 0-6.048-0.896-8.496-2.448l5.296-8c0.96 0.544 2.048 0.848 3.2 0.848s2.24-0.304 3.2-0.848l5.296 8c-2.448 1.552-5.376 2.448-8.496 2.448zM0 14.752c0-6.624 4-12.32 9.776-14.752l3.568 8.928c-2.208 1.024-3.744 3.232-3.744 5.824h-9.6zM22.4 14.752c0-2.592-1.536-4.8-3.744-5.824l3.568-8.928c5.776 2.432 9.776 8.128 9.776 14.752h-9.6z"></path>
</symbol>
<symbol id="icon-icon12" viewBox="0 0 32 32">
<path d="M1.455 14.052l2.982 0.145c0.364-3.302 2.109-6.182 4.655-8.058l-1.629-2.502c-0.393-0.698-0.189-1.585 0.538-1.993 0.727-0.393 1.585-0.16 1.993 0.538l1.353 2.647c1.425-0.611 2.996-0.96 4.655-0.96s3.229 0.349 4.655 0.96l1.353-2.647c0.407-0.698 1.265-0.931 1.993-0.538 0.727 0.407 0.931 1.295 0.538 1.993l-1.629 2.502c2.545 1.876 4.291 4.756 4.655 8.058l2.982-0.145c0.386 0 0.756 0.153 1.029 0.426s0.426 0.643 0.426 1.029c0 0.386-0.153 0.756-0.426 1.029s-0.643 0.426-1.029 0.426l-2.982-0.145c-0.364 3.302-2.109 6.182-4.655 8.058l1.629 2.502c0.393 0.698 0.189 1.585-0.538 1.993-0.727 0.393-1.585 0.16-1.993-0.538l-1.353-2.647c-1.425 0.611-2.996 0.96-4.655 0.96s-3.229-0.349-4.655-0.96l-1.353 2.647c-0.407 0.698-1.265 0.931-1.993 0.538-0.727-0.407-0.931-1.295-0.538-1.993l1.629-2.502c-2.545-1.876-4.291-4.756-4.655-8.058l-2.982 0.145c-0.386 0-0.756-0.153-1.029-0.426s-0.426-0.643-0.426-1.029 0.153-0.756 0.426-1.029c0.273-0.273 0.643-0.426 1.029-0.426zM11.738 14.561c0.189-0.887 0.669-1.673 1.353-2.269l-2.415-3.695c-1.789 1.367-3.011 3.418-3.331 5.745l4.393 0.218zM16 11.143c0.465 0 0.902 0.073 1.309 0.204l2.007-3.913c-1.018-0.422-2.138-0.655-3.316-0.655s-2.298 0.233-3.316 0.655l2.007 3.913c0.407-0.131 0.844-0.204 1.309-0.204zM20.262 14.561l4.393-0.218c-0.32-2.327-1.542-4.378-3.331-5.745l-2.415 3.695c0.684 0.596 1.164 1.382 1.353 2.269zM20.262 16.452c-0.189 0.887-0.669 1.673-1.353 2.269l2.415 3.695c1.789-1.367 3.011-3.418 3.331-5.745l-4.393-0.218zM16 19.87c-0.465 0-0.902-0.073-1.324-0.204l-1.993 3.913c1.018 0.422 2.138 0.655 3.316 0.655s2.298-0.233 3.316-0.655l-1.993-3.913c-0.422 0.131-0.858 0.204-1.324 0.204zM11.738 16.452l-4.393 0.218c0.32 2.327 1.542 4.378 3.331 5.745l2.415-3.695c-0.684-0.596-1.164-1.382-1.353-2.269z"></path>
</symbol>
</defs>
</svg>
